<svg width="115" height="48" viewBox="0 0 115 48" fill="none" xmlns="http://www.w3.org/2000/svg">
<path fill-rule="evenodd" clip-rule="evenodd" d="M23.5905 45.0196V3.13725H24.0607V45.0196H23.5905Z" fill="white"/>
<path fill-rule="evenodd" clip-rule="evenodd" d="M3.29169 23.6078L45.1432 23.6078V24.0784L3.29169 24.0784V23.6078Z" fill="white"/>
<path fill-rule="evenodd" clip-rule="evenodd" d="M42.2805 34.8013L12.687 5.18598L13.0195 4.85323L42.613 34.4685L42.2805 34.8013Z" fill="white"/>
<path fill-rule="evenodd" clip-rule="evenodd" d="M34.7567 42.9581L5.16315 13.3428L5.49566 13.0101L35.0892 42.6254L34.7567 42.9581Z" fill="white"/>
<path fill-rule="evenodd" clip-rule="evenodd" d="M12.687 42.6254L42.2805 13.0101L42.613 13.3428L13.0195 42.9581L12.687 42.6254Z" fill="white"/>
<path fill-rule="evenodd" clip-rule="evenodd" d="M4.84962 34.7822L34.4431 5.16695L34.7756 5.49971L5.18213 35.115L4.84962 34.7822Z" fill="white"/>
<path d="M15.9882 26.9804C14.2568 26.9804 12.8533 25.5758 12.8533 23.8431C12.8533 22.1105 14.2568 20.7059 15.9882 20.7059C17.7196 20.7059 19.1232 22.1105 19.1232 23.8431C19.1232 25.5758 17.7196 26.9804 15.9882 26.9804Z" fill="white"/>
<path d="M31.663 26.9804C29.9316 26.9804 28.528 25.5758 28.528 23.8431C28.528 22.1105 29.9316 20.7059 31.663 20.7059C33.3943 20.7059 34.7979 22.1105 34.7979 23.8431C34.7979 25.5758 33.3943 26.9804 31.663 26.9804Z" fill="white"/>
<path d="M20.6906 16C20.6906 14.2673 22.0942 12.8627 23.8256 12.8627C25.557 12.8627 26.9605 14.2673 26.9605 16C26.9605 17.7327 25.557 19.1373 23.8256 19.1373C22.0942 19.1373 20.6906 17.7327 20.6906 16Z" fill="white"/>
<path d="M20.6906 31.6863C20.6906 29.9536 22.0942 28.549 23.8256 28.549C25.557 28.549 26.9605 29.9536 26.9605 31.6863C26.9605 33.4189 25.557 34.8235 23.8256 34.8235C22.0942 34.8235 20.6906 33.4189 20.6906 31.6863Z" fill="white"/>
<path d="M26.9605 3.13725C26.9605 4.86991 25.557 6.27451 23.8256 6.27451C22.0942 6.27451 20.6906 4.86991 20.6906 3.13725C20.6906 1.4046 22.0942 0 23.8256 0C25.557 0 26.9605 1.4046 26.9605 3.13725Z" fill="white"/>
<path d="M37.1862 7.49516C36.3205 8.99568 34.4032 9.5098 32.9038 8.64347C31.4044 7.77714 30.8906 5.85843 31.7563 4.3579C32.622 2.85738 34.5393 2.34326 36.0388 3.20959C37.5382 4.07592 38.0519 5.99463 37.1862 7.49516Z" fill="white"/>
<path d="M43.4974 16.2798C41.998 17.1461 40.0807 16.632 39.215 15.1315C38.3493 13.6309 38.8631 11.7122 40.3625 10.8459C41.8619 9.97957 43.7792 10.4937 44.6449 11.9942C45.5106 13.4947 44.9969 15.4135 43.4974 16.2798Z" fill="white"/>
<path d="M44.8297 26.9804C43.0984 26.9804 41.6948 25.5758 41.6948 23.8431C41.6948 22.1105 43.0984 20.7059 44.8297 20.7059C46.5611 20.7059 47.9647 22.1105 47.9647 23.8431C47.9647 25.5758 46.5611 26.9804 44.8297 26.9804Z" fill="white"/>
<path d="M40.4693 36.9915C38.9698 36.1252 38.4561 34.2065 39.3218 32.7059C40.1875 31.2054 42.1048 30.6913 43.6042 31.5576C45.1036 32.4239 45.6174 34.3427 44.7517 35.8432C43.886 37.3437 41.9687 37.8578 40.4693 36.9915Z" fill="white"/>
<path d="M31.6911 43.4795C30.8254 41.979 31.3391 40.0602 32.8385 39.1939C34.338 38.3276 36.2553 38.8417 37.1209 40.3422C37.9866 41.8428 37.4729 43.7615 35.9735 44.6278C34.4741 45.4941 32.5568 44.98 31.6911 43.4795Z" fill="white"/>
<path d="M26.9605 44.8627C26.9605 46.5954 25.557 48 23.8256 48C22.0942 48 20.6906 46.5954 20.6906 44.8627C20.6906 43.1301 22.0942 41.7255 23.8256 41.7255C25.557 41.7255 26.9605 43.1301 26.9605 44.8627Z" fill="white"/>
<path d="M16.3388 43.6305C15.4731 45.131 13.5558 45.6451 12.0563 44.7788C10.5569 43.9125 10.0432 41.9937 10.9089 40.4932C11.7746 38.9927 13.6919 38.4786 15.1913 39.3449C16.6907 40.2112 17.2044 42.13 16.3388 43.6305Z" fill="white"/>
<path d="M7.38868 37.1425C5.88926 38.0088 3.97195 37.4947 3.10626 35.9942C2.24057 34.4936 2.75431 32.5749 4.25373 31.7086C5.75315 30.8423 7.67046 31.3564 8.53615 32.8569C9.40184 34.3574 8.8881 36.2762 7.38868 37.1425Z" fill="white"/>
<path d="M4.3605 16.1287C2.86108 15.2624 2.34734 13.3437 3.21303 11.8431C4.07872 10.3426 5.99602 9.8285 7.49545 10.6948C8.99487 11.5612 9.50861 13.4799 8.64292 14.9804C7.77722 16.4809 5.85992 16.995 4.3605 16.1287Z" fill="white"/>
<path d="M3.13495 26.9804C1.40356 26.9804 -5.64573e-08 25.5758 0 23.8431C5.64573e-08 22.1105 1.40356 20.7059 3.13495 20.7059C4.86633 20.7059 6.26989 22.1105 6.26989 23.8431C6.26989 25.5758 4.86633 26.9804 3.13495 26.9804Z" fill="white"/>
<path d="M10.8437 7.3441C9.97798 5.84358 10.4917 3.92486 11.9911 3.05853C13.4906 2.1922 15.4079 2.70632 16.2736 4.20685C17.1392 5.70737 16.6255 7.62609 15.1261 8.49242C13.6267 9.35875 11.7094 8.84463 10.8437 7.3441Z" fill="white"/>
<path fill-rule="evenodd" clip-rule="evenodd" d="M24.1391 44.3922C35.4796 44.3922 44.673 35.192 44.673 23.8431C44.673 12.4942 35.4796 3.29412 24.1391 3.29412C12.7985 3.29412 3.60519 12.4942 3.60519 23.8431C3.60519 35.192 12.7985 44.3922 24.1391 44.3922ZM24.1391 44.8627C35.7394 44.8627 45.1432 35.4519 45.1432 23.8431C45.1432 12.2343 35.7394 2.82353 24.1391 2.82353C12.5388 2.82353 3.13495 12.2343 3.13495 23.8431C3.13495 35.4519 12.5388 44.8627 24.1391 44.8627Z" fill="white"/>
<path d="M54.7874 23.4984H55.2337C55.3885 23.4984 55.5128 23.48 55.6066 23.4433C55.7003 23.4025 55.7859 23.3352 55.8633 23.2414L58.7793 19.9379C58.8608 19.8318 58.9464 19.7584 59.0361 19.7176C59.1257 19.6769 59.2358 19.6565 59.3662 19.6565H60.3687L57.0309 23.4311C56.9494 23.5289 56.87 23.6105 56.7925 23.6758C56.7192 23.7369 56.6397 23.7879 56.5541 23.8287C56.6642 23.8654 56.764 23.9205 56.8537 23.9939C56.9433 24.0632 57.0309 24.155 57.1165 24.2692L60.601 28.4231H59.574C59.4966 28.4231 59.4293 28.419 59.3723 28.4108C59.3193 28.3986 59.2724 28.3823 59.2317 28.3619C59.1909 28.3374 59.1542 28.3109 59.1216 28.2824C59.0931 28.2497 59.0646 28.213 59.0361 28.1722L56.0162 24.6913C55.9347 24.5893 55.847 24.518 55.7533 24.4772C55.6596 24.4323 55.5169 24.4099 55.3254 24.4099H54.7874V28.4231H53.6076V19.6565H54.7874V23.4984Z" fill="white"/>
<path d="M66.3548 25.1685L64.9794 21.6019C64.9386 21.4958 64.8958 21.3735 64.851 21.2348C64.8062 21.0921 64.7634 20.9412 64.7226 20.7821C64.637 21.1125 64.5494 21.3878 64.4598 21.608L63.0843 25.1685H66.3548ZM68.8245 28.4231H67.9076C67.8016 28.4231 67.716 28.3965 67.6508 28.3435C67.5856 28.2905 67.5367 28.2232 67.5041 28.1416L66.6849 26.0249H62.7542L61.935 28.1416C61.9106 28.2151 61.8637 28.2803 61.7944 28.3374C61.7251 28.3945 61.6396 28.4231 61.5377 28.4231H60.6207L64.1235 19.6565H65.3217L68.8245 28.4231Z" fill="white"/>
<path d="M72.4062 24.9299V28.4231H71.2202V24.9299L68.0108 19.6565H69.0501C69.156 19.6565 69.2396 19.683 69.3007 19.736C69.3618 19.7849 69.4148 19.8502 69.4596 19.9318L71.4648 23.3393C71.5381 23.482 71.6054 23.6166 71.6665 23.7431C71.7276 23.8654 71.7806 23.9898 71.8254 24.1162C71.8703 23.9898 71.9212 23.8654 71.9783 23.7431C72.0353 23.6166 72.0985 23.482 72.1678 23.3393L74.1668 19.9318C74.2034 19.8624 74.2544 19.7992 74.3196 19.7421C74.3848 19.685 74.4683 19.6565 74.5702 19.6565H75.6156L72.4062 24.9299Z" fill="white"/>
<path d="M82.846 20.9289H80.1806V28.4231H78.5362V20.9289H75.8709V19.5769H82.846V20.9289Z" fill="white"/>
<path d="M86.9876 23.7859C87.2974 23.7859 87.5664 23.7471 87.7946 23.6696C88.0269 23.5922 88.2164 23.4861 88.3631 23.3515C88.5139 23.2129 88.626 23.0497 88.6993 22.8621C88.7727 22.6745 88.8094 22.4685 88.8094 22.2442C88.8094 21.7956 88.6606 21.451 88.3631 21.2104C88.0697 20.9697 87.6193 20.8494 87.0121 20.8494H85.9606V23.7859H86.9876ZM91.2179 28.4231H89.7324C89.4512 28.4231 89.2475 28.3129 89.1211 28.0927L87.2627 25.2602C87.1935 25.1542 87.116 25.0787 87.0304 25.0339C86.9489 24.989 86.8267 24.9666 86.6636 24.9666H85.9606V28.4231H84.3162V19.5769H87.0121C87.6112 19.5769 88.1247 19.6402 88.5526 19.7666C88.9846 19.8889 89.3371 20.0623 89.6102 20.2866C89.8873 20.5109 90.0911 20.7801 90.2215 21.0941C90.3519 21.4041 90.4171 21.7467 90.4171 22.1219C90.4171 22.4196 90.3723 22.701 90.2826 22.9661C90.197 23.2312 90.0707 23.4718 89.9036 23.688C89.7406 23.9042 89.5368 24.0938 89.2923 24.2569C89.0518 24.4201 88.7768 24.5485 88.467 24.6424C88.573 24.7035 88.6708 24.7769 88.7605 24.8626C88.8501 24.9442 88.9316 25.042 89.005 25.1562L91.2179 28.4231Z" fill="white"/>
<path d="M95.9722 27.0955C96.2901 27.0955 96.5734 27.0425 96.822 26.9365C97.0747 26.8304 97.2866 26.6816 97.4577 26.4899C97.6289 26.2982 97.7593 26.0657 97.849 25.7925C97.9427 25.5192 97.9896 25.2133 97.9896 24.8748V19.5769H99.634V24.8748C99.634 25.4009 99.5484 25.8883 99.3773 26.3369C99.2102 26.7815 98.9677 27.1669 98.6498 27.4932C98.336 27.8154 97.9529 28.0682 97.5005 28.2518C97.0482 28.4312 96.5387 28.5209 95.9722 28.5209C95.4017 28.5209 94.8902 28.4312 94.4379 28.2518C93.9855 28.0682 93.6003 27.8154 93.2825 27.4932C92.9687 27.1669 92.7262 26.7815 92.555 26.3369C92.3879 25.8883 92.3044 25.4009 92.3044 24.8748V19.5769H93.9488V24.8687C93.9488 25.2072 93.9936 25.5131 94.0833 25.7864C94.177 26.0596 94.3095 26.2941 94.4806 26.4899C94.6559 26.6816 94.8678 26.8304 95.1164 26.9365C95.3691 27.0425 95.6544 27.0955 95.9722 27.0955Z" fill="white"/>
<path d="M106.509 21.1859C106.46 21.2715 106.407 21.3347 106.35 21.3755C106.297 21.4122 106.23 21.4306 106.149 21.4306C106.063 21.4306 105.969 21.4 105.867 21.3388C105.77 21.2736 105.651 21.2022 105.513 21.1247C105.374 21.0472 105.211 20.9779 105.024 20.9167C104.84 20.8514 104.622 20.8188 104.37 20.8188C104.141 20.8188 103.942 20.8474 103.771 20.9045C103.599 20.9575 103.455 21.0329 103.337 21.1308C103.222 21.2287 103.137 21.347 103.08 21.4856C103.023 21.6202 102.994 21.7691 102.994 21.9322C102.994 22.1402 103.051 22.3136 103.165 22.4522C103.284 22.5909 103.438 22.7092 103.63 22.8071C103.821 22.9049 104.04 22.9926 104.284 23.0701C104.529 23.1476 104.779 23.2312 105.036 23.3209C105.293 23.4066 105.543 23.5085 105.788 23.6268C106.032 23.741 106.25 23.8878 106.442 24.0673C106.634 24.2427 106.786 24.4588 106.9 24.7158C107.019 24.9727 107.078 25.2847 107.078 25.6518C107.078 26.0515 107.008 26.4267 106.87 26.7774C106.735 27.1241 106.536 27.4279 106.271 27.6889C106.01 27.9459 105.69 28.1498 105.311 28.3007C104.932 28.4475 104.498 28.5209 104.009 28.5209C103.728 28.5209 103.451 28.4924 103.178 28.4353C102.904 28.3823 102.642 28.3048 102.389 28.2028C102.14 28.1009 101.906 27.9785 101.686 27.8358C101.466 27.693 101.27 27.534 101.099 27.3586L101.582 26.5694C101.623 26.5123 101.676 26.4654 101.741 26.4287C101.806 26.3879 101.875 26.3675 101.949 26.3675C102.051 26.3675 102.161 26.4104 102.279 26.496C102.397 26.5776 102.538 26.6693 102.701 26.7713C102.864 26.8733 103.053 26.9671 103.269 27.0527C103.489 27.1343 103.752 27.1751 104.058 27.1751C104.527 27.1751 104.889 27.0649 105.146 26.8447C105.403 26.6204 105.531 26.3002 105.531 25.8842C105.531 25.6518 105.472 25.4621 105.354 25.3153C105.24 25.1685 105.087 25.0461 104.895 24.9482C104.704 24.8463 104.486 24.7606 104.241 24.6913C103.997 24.622 103.748 24.5465 103.495 24.4649C103.243 24.3834 102.994 24.2855 102.75 24.1713C102.505 24.0571 102.287 23.9082 102.096 23.7247C101.904 23.5412 101.749 23.3128 101.631 23.0395C101.517 22.7622 101.46 22.4216 101.46 22.0179C101.46 21.6957 101.523 21.3816 101.649 21.0758C101.78 20.7699 101.967 20.4987 102.212 20.2621C102.456 20.0256 102.758 19.8359 103.116 19.6932C103.475 19.5504 103.887 19.4791 104.351 19.4791C104.873 19.4791 105.354 19.5606 105.794 19.7238C106.234 19.8869 106.609 20.1153 106.919 20.4089L106.509 21.1859Z" fill="white"/>
<path d="M115 20.9289H112.335V28.4231H110.69V20.9289H108.025V19.5769H115V20.9289Z" fill="white"/>
</svg>
